{
	"asset":{
		"generator":"Khronos glTF Blender I/O v4.1.63",
		"version":"2.0"
	},
	"scene":0,
	"scenes":[
		{
			"name":"Scene",
			"nodes":[
				0,
				1,
				2,
				3,
				4
			]
		}
	],
	"nodes":[
		{
			"mesh":0,
			"name":"Lemn1.001",
			"rotation":[
				0,
				-0.7071060538291931,
				0,
				0.7071074843406677
			],
			"translation":[
				0.5999289155006409,
				0.04897582530975342,
				-0.05412600189447403
			]
		},
		{
			"mesh":1,
			"name":"Lemn1.002",
			"rotation":[
				0,
				0.7071070671081543,
				0,
				0.7071065902709961
			],
			"translation":[
				1.1999289989471436,
				0.04897582530975342,
				-0.05412600189447403
			]
		},
		{
			"mesh":2,
			"name":"Lemn1",
			"rotation":[
				0,
				0.7071070671081543,
				0,
				0.7071065902709961
			],
			"translation":[
				-7.108086720108986e-05,
				0.04897582530975342,
				-0.05412600189447403
			]
		},
		{
			"mesh":3,
			"name":"Plane.000",
			"rotation":[
				0,
				0,
				-0.7071070671081543,
				0.7071065902709961
			],
			"translation":[
				0.6527012586593628,
				0.021621346473693848,
				-0.6138057112693787
			]
		},
		{
			"mesh":4,
			"name":"Plane.001",
			"rotation":[
				0,
				0,
				-0.7071070671081543,
				0.7071065902709961
			],
			"translation":[
				0.6527012586593628,
				0.021621346473693848,
				0.4743819832801819
			]
		}
	],
	"materials":[
		{
			"doubleSided":true,
			"name":"Lemn.001",
			"pbrMetallicRoughness":{
				"baseColorFactor":[
					0.8007264733314514,
					0.43315601348876953,
					0.18172410130500793,
					1
				],
				"metallicFactor":0,
				"roughnessFactor":0.5
			}
		},
		{
			"doubleSided":true,
			"name":"metal sina",
			"pbrMetallicRoughness":{
				"baseColorFactor":[
					0.3659001886844635,
					0.3575700521469116,
					0.37638717889785767,
					1
				],
				"metallicFactor":0,
				"roughnessFactor":0.5
			}
		}
	],
	"meshes":[
		{
			"name":"Cube.002",
			"primitives":[
				{
					"attributes":{
						"POSITION":0,
						"NORMAL":1,
						"TEXCOORD_0":2
					},
					"indices":3,
					"material":0
				}
			]
		},
		{
			"name":"Cube.003",
			"primitives":[
				{
					"attributes":{
						"POSITION":4,
						"NORMAL":5,
						"TEXCOORD_0":6
					},
					"indices":3,
					"material":0
				}
			]
		},
		{
			"name":"Cube",
			"primitives":[
				{
					"attributes":{
						"POSITION":7,
						"NORMAL":8,
						"TEXCOORD_0":9
					},
					"indices":3,
					"material":0
				}
			]
		},
		{
			"name":"Plane.006",
			"primitives":[
				{
					"attributes":{
						"POSITION":10,
						"NORMAL":11,
						"TEXCOORD_0":12
					},
					"indices":13,
					"material":1
				}
			]
		},
		{
			"name":"Plane.005",
			"primitives":[
				{
					"attributes":{
						"POSITION":14,
						"NORMAL":15,
						"TEXCOORD_0":16
					},
					"indices":13,
					"material":1
				}
			]
		}
	],
	"accessors":[
		{
			"bufferView":0,
			"componentType":5126,
			"count":20,
			"max":[
				0.8030723333358765,
				0.03153012692928314,
				0.15474286675453186
			],
			"min":[
				-0.8030723333358765,
				-0.03153012692928314,
				-0.15474286675453186
			],
			"type":"VEC3"
		},
		{
			"bufferView":1,
			"componentType":5126,
			"count":20,
			"type":"VEC3"
		},
		{
			"bufferView":2,
			"componentType":5126,
			"count":20,
			"type":"VEC2"
		},
		{
			"bufferView":3,
			"componentType":5123,
			"count":30,
			"type":"SCALAR"
		},
		{
			"bufferView":4,
			"componentType":5126,
			"count":20,
			"max":[
				0.8030723333358765,
				0.03153012692928314,
				0.15474286675453186
			],
			"min":[
				-0.8030723333358765,
				-0.03153012692928314,
				-0.15474286675453186
			],
			"type":"VEC3"
		},
		{
			"bufferView":5,
			"componentType":5126,
			"count":20,
			"type":"VEC3"
		},
		{
			"bufferView":6,
			"componentType":5126,
			"count":20,
			"type":"VEC2"
		},
		{
			"bufferView":7,
			"componentType":5126,
			"count":20,
			"max":[
				0.8030723333358765,
				0.03153012692928314,
				0.15474286675453186
			],
			"min":[
				-0.8030723333358765,
				-0.03153012692928314,
				-0.15474286675453186
			],
			"type":"VEC3"
		},
		{
			"bufferView":8,
			"componentType":5126,
			"count":20,
			"type":"VEC3"
		},
		{
			"bufferView":9,
			"componentType":5126,
			"count":20,
			"type":"VEC2"
		},
		{
			"bufferView":10,
			"componentType":5126,
			"count":12,
			"max":[
				-0.0269594956189394,
				0.859329342842102,
				0.09821323305368423
			],
			"min":[
				-0.11694349348545074,
				-0.9615424275398254,
				-0.021769598126411438
			],
			"type":"VEC3"
		},
		{
			"bufferView":11,
			"componentType":5126,
			"count":12,
			"type":"VEC3"
		},
		{
			"bufferView":12,
			"componentType":5126,
			"count":12,
			"type":"VEC2"
		},
		{
			"bufferView":13,
			"componentType":5123,
			"count":18,
			"type":"SCALAR"
		},
		{
			"bufferView":14,
			"componentType":5126,
			"count":12,
			"max":[
				-0.0269594956189394,
				0.859329342842102,
				0.09821323305368423
			],
			"min":[
				-0.11694349348545074,
				-0.9615424275398254,
				-0.021769598126411438
			],
			"type":"VEC3"
		},
		{
			"bufferView":15,
			"componentType":5126,
			"count":12,
			"type":"VEC3"
		},
		{
			"bufferView":16,
			"componentType":5126,
			"count":12,
			"type":"VEC2"
		}
	],
	"bufferViews":[
		{
			"buffer":0,
			"byteLength":240,
			"byteOffset":0,
			"target":34962
		},
		{
			"buffer":0,
			"byteLength":240,
			"byteOffset":240,
			"target":34962
		},
		{
			"buffer":0,
			"byteLength":160,
			"byteOffset":480,
			"target":34962
		},
		{
			"buffer":0,
			"byteLength":60,
			"byteOffset":640,
			"target":34963
		},
		{
			"buffer":0,
			"byteLength":240,
			"byteOffset":700,
			"target":34962
		},
		{
			"buffer":0,
			"byteLength":240,
			"byteOffset":940,
			"target":34962
		},
		{
			"buffer":0,
			"byteLength":160,
			"byteOffset":1180,
			"target":34962
		},
		{
			"buffer":0,
			"byteLength":240,
			"byteOffset":1340,
			"target":34962
		},
		{
			"buffer":0,
			"byteLength":240,
			"byteOffset":1580,
			"target":34962
		},
		{
			"buffer":0,
			"byteLength":160,
			"byteOffset":1820,
			"target":34962
		},
		{
			"buffer":0,
			"byteLength":144,
			"byteOffset":1980,
			"target":34962
		},
		{
			"buffer":0,
			"byteLength":144,
			"byteOffset":2124,
			"target":34962
		},
		{
			"buffer":0,
			"byteLength":96,
			"byteOffset":2268,
			"target":34962
		},
		{
			"buffer":0,
			"byteLength":36,
			"byteOffset":2364,
			"target":34963
		},
		{
			"buffer":0,
			"byteLength":144,
			"byteOffset":2400,
			"target":34962
		},
		{
			"buffer":0,
			"byteLength":144,
			"byteOffset":2544,
			"target":34962
		},
		{
			"buffer":0,
			"byteLength":96,
			"byteOffset":2688,
			"target":34962
		}
	],
	"buffers":[
		{
			"byteLength":2784,
			"uri":"caleferata.bin"
		}
	]
}
