{
	"asset":{
		"generator":"Khronos glTF Blender I/O v4.1.63",
		"version":"2.0"
	},
	"scene":0,
	"scenes":[
		{
			"name":"Scene",
			"nodes":[
				0,
				1,
				2,
				3,
				4,
				5,
				6,
				7
			]
		}
	],
	"nodes":[
		{
			"mesh":0,
			"name":"Placaj",
			"rotation":[
				0.7071070671081543,
				0,
				0,
				0.7071065902709961
			],
			"translation":[
				0.033654630184173584,
				1.2652307748794556,
				-0.2512992024421692
			]
		},
		{
			"mesh":1,
			"name":"Roata4",
			"rotation":[
				-0.7071060538291931,
				0,
				0,
				0.7071074843406677
			],
			"translation":[
				0.03827977180480957,
				0.19587719440460205,
				-0.5021229982376099
			]
		},
		{
			"mesh":2,
			"name":"Roata3",
			"rotation":[
				-0.7071060538291931,
				0,
				0,
				0.7071074843406677
			],
			"translation":[
				0.9479440450668335,
				0.19587719440460205,
				-0.5021229982376099
			]
		},
		{
			"mesh":3,
			"name":"ax1",
			"rotation":[
				0.7071070671081543,
				0,
				0,
				0.7071065902709961
			],
			"translation":[
				0.9460405111312866,
				0.2004185914993286,
				0.5470271110534668
			]
		},
		{
			"mesh":4,
			"name":"ax2",
			"rotation":[
				0.7071070671081543,
				0,
				0,
				0.7071065902709961
			],
			"translation":[
				0.034096747636795044,
				0.2004185914993286,
				0.5470271110534668
			]
		},
		{
			"mesh":5,
			"name":"Roata1",
			"rotation":[
				0.7071070671081543,
				0,
				0,
				0.7071065902709961
			],
			"translation":[
				0.03907698392868042,
				0.19587719440460205,
				0.43972501158714294
			]
		},
		{
			"mesh":6,
			"name":"Roata2",
			"rotation":[
				0.7071070671081543,
				0,
				0,
				0.7071065902709961
			],
			"translation":[
				0.9479440450668335,
				0.19587719440460205,
				0.43972501158714294
			]
		},
		{
			"mesh":7,
			"name":"Cadru_metal",
			"rotation":[
				0.7071070671081543,
				0,
				0,
				0.7071065902709961
			],
			"translation":[
				0.033654630184173584,
				1.2652307748794556,
				-0.2512992024421692
			]
		}
	],
	"materials":[
		{
			"doubleSided":true,
			"name":"Placaj",
			"pbrMetallicRoughness":{
				"baseColorFactor":[
					0.4671317934989929,
					0.27082735300064087,
					0.03141409531235695,
					1
				],
				"metallicFactor":0,
				"roughnessFactor":0.5
			}
		},
		{
			"doubleSided":true,
			"name":"roata",
			"pbrMetallicRoughness":{
				"baseColorFactor":[
					0.5691050291061401,
					0.5736554861068726,
					0.5847229957580566,
					1
				],
				"metallicFactor":0,
				"roughnessFactor":0.5
			}
		},
		{
			"doubleSided":true,
			"name":"Ax",
			"pbrMetallicRoughness":{
				"baseColorFactor":[
					0.45004600286483765,
					0.44947534799575806,
					0.4417370855808258,
					1
				],
				"metallicFactor":0,
				"roughnessFactor":0.5
			}
		},
		{
			"doubleSided":true,
			"name":"Cadru_metal_cart",
			"pbrMetallicRoughness":{
				"baseColorFactor":[
					0.25620293617248535,
					0.25474897027015686,
					0.27181756496429443,
					1
				],
				"metallicFactor":0,
				"roughnessFactor":0.5
			}
		}
	],
	"meshes":[
		{
			"name":"Plane.004",
			"primitives":[
				{
					"attributes":{
						"POSITION":0,
						"NORMAL":1,
						"TEXCOORD_0":2
					},
					"indices":3,
					"material":0
				}
			]
		},
		{
			"name":"Circle.001",
			"primitives":[
				{
					"attributes":{
						"POSITION":4,
						"NORMAL":5,
						"TEXCOORD_0":6
					},
					"indices":7,
					"material":1
				}
			]
		},
		{
			"name":"Circle.000",
			"primitives":[
				{
					"attributes":{
						"POSITION":8,
						"NORMAL":9,
						"TEXCOORD_0":10
					},
					"indices":7,
					"material":1
				}
			]
		},
		{
			"name":"Plane.003",
			"primitives":[
				{
					"attributes":{
						"POSITION":11,
						"NORMAL":12,
						"TEXCOORD_0":13
					},
					"indices":14,
					"material":2
				}
			]
		},
		{
			"name":"Plane.002",
			"primitives":[
				{
					"attributes":{
						"POSITION":15,
						"NORMAL":16,
						"TEXCOORD_0":17
					},
					"indices":14,
					"material":2
				}
			]
		},
		{
			"name":"Circle.005",
			"primitives":[
				{
					"attributes":{
						"POSITION":18,
						"NORMAL":19,
						"TEXCOORD_0":20
					},
					"indices":7,
					"material":1
				}
			]
		},
		{
			"name":"Circle.004",
			"primitives":[
				{
					"attributes":{
						"POSITION":21,
						"NORMAL":22,
						"TEXCOORD_0":23
					},
					"indices":7,
					"material":1
				}
			]
		},
		{
			"name":"Plane.001",
			"primitives":[
				{
					"attributes":{
						"POSITION":24,
						"NORMAL":25,
						"TEXCOORD_0":26
					},
					"indices":27,
					"material":3
				}
			]
		}
	],
	"accessors":[
		{
			"bufferView":0,
			"componentType":5126,
			"count":32,
			"max":[
				1.3800915479660034,
				0.7974693179130554,
				0.9240880012512207
			],
			"min":[
				-0.47568824887275696,
				-0.3582336902618408,
				-0.12568950653076172
			],
			"type":"VEC3"
		},
		{
			"bufferView":1,
			"componentType":5126,
			"count":32,
			"type":"VEC3"
		},
		{
			"bufferView":2,
			"componentType":5126,
			"count":32,
			"type":"VEC2"
		},
		{
			"bufferView":3,
			"componentType":5123,
			"count":48,
			"type":"SCALAR"
		},
		{
			"bufferView":4,
			"componentType":5126,
			"count":384,
			"max":[
				0.169925719499588,
				0.07519152760505676,
				0.1699255406856537
			],
			"min":[
				-0.16992589831352234,
				-0.0015651248395442963,
				-0.1699260175228119
			],
			"type":"VEC3"
		},
		{
			"bufferView":5,
			"componentType":5126,
			"count":384,
			"type":"VEC3"
		},
		{
			"bufferView":6,
			"componentType":5126,
			"count":384,
			"type":"VEC2"
		},
		{
			"bufferView":7,
			"componentType":5123,
			"count":756,
			"type":"SCALAR"
		},
		{
			"bufferView":8,
			"componentType":5126,
			"count":384,
			"max":[
				0.169925719499588,
				0.07519152760505676,
				0.1699255406856537
			],
			"min":[
				-0.16992589831352234,
				-0.0015651248395442963,
				-0.1699260175228119
			],
			"type":"VEC3"
		},
		{
			"bufferView":9,
			"componentType":5126,
			"count":384,
			"type":"VEC3"
		},
		{
			"bufferView":10,
			"componentType":5126,
			"count":384,
			"type":"VEC2"
		},
		{
			"bufferView":11,
			"componentType":5126,
			"count":48,
			"max":[
				0.0675758421421051,
				1.7686846267222578e-15,
				0.0675765872001648
			],
			"min":[
				-0.0675758421421051,
				-1.1574227809906006,
				-0.0675758421421051
			],
			"type":"VEC3"
		},
		{
			"bufferView":12,
			"componentType":5126,
			"count":48,
			"type":"VEC3"
		},
		{
			"bufferView":13,
			"componentType":5126,
			"count":48,
			"type":"VEC2"
		},
		{
			"bufferView":14,
			"componentType":5123,
			"count":84,
			"type":"SCALAR"
		},
		{
			"bufferView":15,
			"componentType":5126,
			"count":48,
			"max":[
				0.0675758421421051,
				1.7686846267222578e-15,
				0.0675765872001648
			],
			"min":[
				-0.0675758421421051,
				-1.1574227809906006,
				-0.0675758421421051
			],
			"type":"VEC3"
		},
		{
			"bufferView":16,
			"componentType":5126,
			"count":48,
			"type":"VEC3"
		},
		{
			"bufferView":17,
			"componentType":5126,
			"count":48,
			"type":"VEC2"
		},
		{
			"bufferView":18,
			"componentType":5126,
			"count":384,
			"max":[
				0.169925719499588,
				0.07519152760505676,
				0.1699255406856537
			],
			"min":[
				-0.16992589831352234,
				-0.0015651248395442963,
				-0.1699260175228119
			],
			"type":"VEC3"
		},
		{
			"bufferView":19,
			"componentType":5126,
			"count":384,
			"type":"VEC3"
		},
		{
			"bufferView":20,
			"componentType":5126,
			"count":384,
			"type":"VEC2"
		},
		{
			"bufferView":21,
			"componentType":5126,
			"count":384,
			"max":[
				0.169925719499588,
				0.07519152760505676,
				0.1699255406856537
			],
			"min":[
				-0.16992589831352234,
				-0.0015651248395442963,
				-0.1699260175228119
			],
			"type":"VEC3"
		},
		{
			"bufferView":22,
			"componentType":5126,
			"count":384,
			"type":"VEC3"
		},
		{
			"bufferView":23,
			"componentType":5126,
			"count":384,
			"type":"VEC2"
		},
		{
			"bufferView":24,
			"componentType":5126,
			"count":262,
			"max":[
				1.4416313171386719,
				0.8519368171691895,
				1.066437005996704
			],
			"min":[
				-0.5269766449928284,
				-0.4138864278793335,
				-0.3072351813316345
			],
			"type":"VEC3"
		},
		{
			"bufferView":25,
			"componentType":5126,
			"count":262,
			"type":"VEC3"
		},
		{
			"bufferView":26,
			"componentType":5126,
			"count":262,
			"type":"VEC2"
		},
		{
			"bufferView":27,
			"componentType":5123,
			"count":444,
			"type":"SCALAR"
		}
	],
	"bufferViews":[
		{
			"buffer":0,
			"byteLength":384,
			"byteOffset":0,
			"target":34962
		},
		{
			"buffer":0,
			"byteLength":384,
			"byteOffset":384,
			"target":34962
		},
		{
			"buffer":0,
			"byteLength":256,
			"byteOffset":768,
			"target":34962
		},
		{
			"buffer":0,
			"byteLength":96,
			"byteOffset":1024,
			"target":34963
		},
		{
			"buffer":0,
			"byteLength":4608,
			"byteOffset":1120,
			"target":34962
		},
		{
			"buffer":0,
			"byteLength":4608,
			"byteOffset":5728,
			"target":34962
		},
		{
			"buffer":0,
			"byteLength":3072,
			"byteOffset":10336,
			"target":34962
		},
		{
			"buffer":0,
			"byteLength":1512,
			"byteOffset":13408,
			"target":34963
		},
		{
			"buffer":0,
			"byteLength":4608,
			"byteOffset":14920,
			"target":34962
		},
		{
			"buffer":0,
			"byteLength":4608,
			"byteOffset":19528,
			"target":34962
		},
		{
			"buffer":0,
			"byteLength":3072,
			"byteOffset":24136,
			"target":34962
		},
		{
			"buffer":0,
			"byteLength":576,
			"byteOffset":27208,
			"target":34962
		},
		{
			"buffer":0,
			"byteLength":576,
			"byteOffset":27784,
			"target":34962
		},
		{
			"buffer":0,
			"byteLength":384,
			"byteOffset":28360,
			"target":34962
		},
		{
			"buffer":0,
			"byteLength":168,
			"byteOffset":28744,
			"target":34963
		},
		{
			"buffer":0,
			"byteLength":576,
			"byteOffset":28912,
			"target":34962
		},
		{
			"buffer":0,
			"byteLength":576,
			"byteOffset":29488,
			"target":34962
		},
		{
			"buffer":0,
			"byteLength":384,
			"byteOffset":30064,
			"target":34962
		},
		{
			"buffer":0,
			"byteLength":4608,
			"byteOffset":30448,
			"target":34962
		},
		{
			"buffer":0,
			"byteLength":4608,
			"byteOffset":35056,
			"target":34962
		},
		{
			"buffer":0,
			"byteLength":3072,
			"byteOffset":39664,
			"target":34962
		},
		{
			"buffer":0,
			"byteLength":4608,
			"byteOffset":42736,
			"target":34962
		},
		{
			"buffer":0,
			"byteLength":4608,
			"byteOffset":47344,
			"target":34962
		},
		{
			"buffer":0,
			"byteLength":3072,
			"byteOffset":51952,
			"target":34962
		},
		{
			"buffer":0,
			"byteLength":3144,
			"byteOffset":55024,
			"target":34962
		},
		{
			"buffer":0,
			"byteLength":3144,
			"byteOffset":58168,
			"target":34962
		},
		{
			"buffer":0,
			"byteLength":2096,
			"byteOffset":61312,
			"target":34962
		},
		{
			"buffer":0,
			"byteLength":888,
			"byteOffset":63408,
			"target":34963
		}
	],
	"buffers":[
		{
			"byteLength":64296,
			"uri":"cart.bin"
		}
	]
}
