{
	"asset":{
		"generator":"Khronos glTF Blender I/O v4.1.63",
		"version":"2.0"
	},
	"scene":0,
	"scenes":[
		{
			"name":"Scene",
			"nodes":[
				0,
				1,
				2,
				3,
				4,
				5
			]
		}
	],
	"nodes":[
		{
			"mesh":0,
			"name":"Cylinder.004",
			"scale":[
				0.08800015598535538,
				0.06748662889003754,
				0.08800015598535538
			],
			"translation":[
				0,
				-1.5411957502365112,
				0
			]
		},
		{
			"mesh":1,
			"name":"Cylinder.003",
			"scale":[
				0.06622520834207535,
				0.05078759044408798,
				0.06622520834207535
			],
			"translation":[
				0,
				-1.4339537620544434,
				0
			]
		},
		{
			"mesh":2,
			"name":"Cylinder.000",
			"scale":[
				0.06622520834207535,
				0.05078759044408798,
				0.06622520834207535
			],
			"translation":[
				0,
				-1.4339537620544434,
				0
			]
		},
		{
			"mesh":3,
			"name":"Cylinder.001",
			"scale":[
				0.24775497615337372,
				0.09500066190958023,
				0.24775497615337372
			],
			"translation":[
				0,
				-1.6875109672546387,
				0
			]
		},
		{
			"mesh":4,
			"name":"Sphere",
			"scale":[
				0.699999988079071,
				1.4095877408981323,
				0.800000011920929
			]
		},
		{
			"mesh":5,
			"name":"Torus.001",
			"rotation":[
				-0.6771327257156372,
				-0.21080411970615387,
				0.20476192235946655,
				0.6746299266815186
			],
			"scale":[
				0.31924358010292053,
				0.295892596244812,
				0.6384871602058411
			],
			"translation":[
				0.10886073112487793,
				-0.17939399182796478,
				0
			]
		}
	],
	"materials":[
		{
			"doubleSided":true,
			"name":"gold",
			"pbrMetallicRoughness":{
				"baseColorFactor":[
					0.6038274168968201,
					0.13286834955215454,
					0.033104777336120605,
					1
				],
				"metallicFactor":0,
				"roughnessFactor":0.5
			}
		}
	],
	"meshes":[
		{
			"name":"Cylinder.005",
			"primitives":[
				{
					"attributes":{
						"POSITION":0,
						"NORMAL":1
					},
					"indices":2,
					"material":0
				}
			]
		},
		{
			"name":"Cylinder.004",
			"primitives":[
				{
					"attributes":{
						"POSITION":3,
						"NORMAL":4
					},
					"indices":2,
					"material":0
				}
			]
		},
		{
			"name":"Cylinder.003",
			"primitives":[
				{
					"attributes":{
						"POSITION":5,
						"NORMAL":6
					},
					"indices":7,
					"material":0
				}
			]
		},
		{
			"name":"Cylinder.001",
			"primitives":[
				{
					"attributes":{
						"POSITION":8,
						"NORMAL":9
					},
					"indices":2,
					"material":0
				}
			]
		},
		{
			"name":"Sphere",
			"primitives":[
				{
					"attributes":{
						"POSITION":10,
						"NORMAL":11
					},
					"indices":12,
					"material":0
				}
			]
		},
		{
			"name":"Torus.001",
			"primitives":[
				{
					"attributes":{
						"POSITION":13,
						"NORMAL":14
					},
					"indices":15,
					"material":0
				}
			]
		}
	],
	"accessors":[
		{
			"bufferView":0,
			"componentType":5126,
			"count":448,
			"max":[
				1.6358051300048828,
				1.030382513999939,
				1.6358051300048828
			],
			"min":[
				-1.635805368423462,
				-1.0303823947906494,
				-1.6358051300048828
			],
			"type":"VEC3"
		},
		{
			"bufferView":1,
			"componentType":5126,
			"count":448,
			"type":"VEC3"
		},
		{
			"bufferView":2,
			"componentType":5123,
			"count":2676,
			"type":"SCALAR"
		},
		{
			"bufferView":3,
			"componentType":5126,
			"count":448,
			"max":[
				1.6358051300048828,
				1.030382513999939,
				1.6358051300048828
			],
			"min":[
				-1.635805368423462,
				-1.0303823947906494,
				-1.6358051300048828
			],
			"type":"VEC3"
		},
		{
			"bufferView":4,
			"componentType":5126,
			"count":448,
			"type":"VEC3"
		},
		{
			"bufferView":5,
			"componentType":5126,
			"count":128,
			"max":[
				1.2887014150619507,
				1,
				1.2887014150619507
			],
			"min":[
				-1.2887014150619507,
				-1,
				-1.2887014150619507
			],
			"type":"VEC3"
		},
		{
			"bufferView":6,
			"componentType":5126,
			"count":128,
			"type":"VEC3"
		},
		{
			"bufferView":7,
			"componentType":5123,
			"count":756,
			"type":"SCALAR"
		},
		{
			"bufferView":8,
			"componentType":5126,
			"count":448,
			"max":[
				1.6358051300048828,
				1.030382513999939,
				1.6358051300048828
			],
			"min":[
				-1.635805368423462,
				-1.0303823947906494,
				-1.6358051300048828
			],
			"type":"VEC3"
		},
		{
			"bufferView":9,
			"componentType":5126,
			"count":448,
			"type":"VEC3"
		},
		{
			"bufferView":10,
			"componentType":5126,
			"count":2050,
			"max":[
				1.1610175371170044,
				-0.000973820686340332,
				1.1610177755355835
			],
			"min":[
				-1.1610170602798462,
				-1,
				-1.1610175371170044
			],
			"type":"VEC3"
		},
		{
			"bufferView":11,
			"componentType":5126,
			"count":2050,
			"type":"VEC3"
		},
		{
			"bufferView":12,
			"componentType":5123,
			"count":12288,
			"type":"SCALAR"
		},
		{
			"bufferView":13,
			"componentType":5126,
			"count":309,
			"max":[
				-1.9312924146652222,
				0.08093810081481934,
				1.2848066091537476
			],
			"min":[
				-3.466291666030884,
				-0.08093814551830292,
				-0.6738814115524292
			],
			"type":"VEC3"
		},
		{
			"bufferView":14,
			"componentType":5126,
			"count":309,
			"type":"VEC3"
		},
		{
			"bufferView":15,
			"componentType":5123,
			"count":1812,
			"type":"SCALAR"
		}
	],
	"bufferViews":[
		{
			"buffer":0,
			"byteLength":5376,
			"byteOffset":0,
			"target":34962
		},
		{
			"buffer":0,
			"byteLength":5376,
			"byteOffset":5376,
			"target":34962
		},
		{
			"buffer":0,
			"byteLength":5352,
			"byteOffset":10752,
			"target":34963
		},
		{
			"buffer":0,
			"byteLength":5376,
			"byteOffset":16104,
			"target":34962
		},
		{
			"buffer":0,
			"byteLength":5376,
			"byteOffset":21480,
			"target":34962
		},
		{
			"buffer":0,
			"byteLength":1536,
			"byteOffset":26856,
			"target":34962
		},
		{
			"buffer":0,
			"byteLength":1536,
			"byteOffset":28392,
			"target":34962
		},
		{
			"buffer":0,
			"byteLength":1512,
			"byteOffset":29928,
			"target":34963
		},
		{
			"buffer":0,
			"byteLength":5376,
			"byteOffset":31440,
			"target":34962
		},
		{
			"buffer":0,
			"byteLength":5376,
			"byteOffset":36816,
			"target":34962
		},
		{
			"buffer":0,
			"byteLength":24600,
			"byteOffset":42192,
			"target":34962
		},
		{
			"buffer":0,
			"byteLength":24600,
			"byteOffset":66792,
			"target":34962
		},
		{
			"buffer":0,
			"byteLength":24576,
			"byteOffset":91392,
			"target":34963
		},
		{
			"buffer":0,
			"byteLength":3708,
			"byteOffset":115968,
			"target":34962
		},
		{
			"buffer":0,
			"byteLength":3708,
			"byteOffset":119676,
			"target":34962
		},
		{
			"buffer":0,
			"byteLength":3624,
			"byteOffset":123384,
			"target":34963
		}
	],
	"buffers":[
		{
			"byteLength":127008,
			"uri":"awardcupBronze.bin"
		}
	]
}
