{
	"asset":{
		"generator":"Khronos glTF Blender I/O v4.1.63",
		"version":"2.0"
	},
	"scene":0,
	"scenes":[
		{
			"name":"Scene",
			"nodes":[
				0
			]
		}
	],
	"nodes":[
		{
			"mesh":0,
			"name":"Hammer"
		}
	],
	"materials":[
		{
			"doubleSided":true,
			"name":"wood",
			"pbrMetallicRoughness":{
				"baseColorFactor":[
					0.24619457125663757,
					0.0792933776974678,
					0.021458033472299576,
					1
				],
				"metallicFactor":0,
				"roughnessFactor":0.5
			}
		},
		{
			"doubleSided":true,
			"name":",metakl",
			"pbrMetallicRoughness":{
				"baseColorFactor":[
					0.23301564157009125,
					0.23301564157009125,
					0.23301564157009125,
					1
				],
				"metallicFactor":0,
				"roughnessFactor":0.5
			}
		}
	],
	"meshes":[
		{
			"name":"Cylinder",
			"primitives":[
				{
					"attributes":{
						"POSITION":0,
						"NORMAL":1,
						"TEXCOORD_0":2
					},
					"indices":3,
					"material":0
				},
				{
					"attributes":{
						"POSITION":4,
						"NORMAL":5,
						"TEXCOORD_0":6
					},
					"indices":7,
					"material":1
				}
			]
		}
	],
	"accessors":[
		{
			"bufferView":0,
			"componentType":5126,
			"count":26,
			"max":[
				0.04302956536412239,
				1.5824698209762573,
				0.04302956536412239
			],
			"min":[
				-0.043029557913541794,
				0.01726234331727028,
				-0.04302957281470299
			],
			"type":"VEC3"
		},
		{
			"bufferView":1,
			"componentType":5126,
			"count":26,
			"type":"VEC3"
		},
		{
			"bufferView":2,
			"componentType":5126,
			"count":26,
			"type":"VEC2"
		},
		{
			"bufferView":3,
			"componentType":5123,
			"count":72,
			"type":"SCALAR"
		},
		{
			"bufferView":4,
			"componentType":5126,
			"count":1122,
			"max":[
				0.276661217212677,
				1.5997322797775269,
				0.08627355843782425
			],
			"min":[
				-0.2766611874103546,
				-6.647749728472263e-08,
				-0.08627364039421082
			],
			"type":"VEC3"
		},
		{
			"bufferView":5,
			"componentType":5126,
			"count":1122,
			"type":"VEC3"
		},
		{
			"bufferView":6,
			"componentType":5126,
			"count":1122,
			"type":"VEC2"
		},
		{
			"bufferView":7,
			"componentType":5123,
			"count":2220,
			"type":"SCALAR"
		}
	],
	"bufferViews":[
		{
			"buffer":0,
			"byteLength":312,
			"byteOffset":0,
			"target":34962
		},
		{
			"buffer":0,
			"byteLength":312,
			"byteOffset":312,
			"target":34962
		},
		{
			"buffer":0,
			"byteLength":208,
			"byteOffset":624,
			"target":34962
		},
		{
			"buffer":0,
			"byteLength":144,
			"byteOffset":832,
			"target":34963
		},
		{
			"buffer":0,
			"byteLength":13464,
			"byteOffset":976,
			"target":34962
		},
		{
			"buffer":0,
			"byteLength":13464,
			"byteOffset":14440,
			"target":34962
		},
		{
			"buffer":0,
			"byteLength":8976,
			"byteOffset":27904,
			"target":34962
		},
		{
			"buffer":0,
			"byteLength":4440,
			"byteOffset":36880,
			"target":34963
		}
	],
	"buffers":[
		{
			"byteLength":41320,
			"uri":"hammer.bin"
		}
	]
}
