{
	"asset":{
		"generator":"Khronos glTF Blender I/O v4.1.63",
		"version":"2.0"
	},
	"scene":0,
	"scenes":[
		{
			"name":"Scene",
			"nodes":[
				0
			]
		}
	],
	"nodes":[
		{
			"mesh":0,
			"name":"rocks_02",
			"scale":[
				0.009999999776482582,
				0.009999999776482582,
				0.009999999776482582
			]
		}
	],
	"materials":[
		{
			"doubleSided":true,
			"name":"\u30de\u30c6\u30ea\u30a2\u30eb",
			"pbrMetallicRoughness":{
				"baseColorFactor":[
					0.8012751340866089,
					0.5617930889129639,
					0.24617381393909454,
					0.11926605552434921
				],
				"metallicFactor":0,
				"roughnessFactor":0.5
			}
		}
	],
	"meshes":[
		{
			"name":"Mesh",
			"primitives":[
				{
					"attributes":{
						"POSITION":0,
						"NORMAL":1,
						"TEXCOORD_0":2
					},
					"indices":3,
					"material":0
				}
			]
		}
	],
	"accessors":[
		{
			"bufferView":0,
			"componentType":5126,
			"count":870,
			"max":[
				62.96950149536133,
				47.21229934692383,
				28.887300491333008
			],
			"min":[
				-72.54049682617188,
				-20.360599517822266,
				-70.02349853515625
			],
			"type":"VEC3"
		},
		{
			"bufferView":1,
			"componentType":5126,
			"count":870,
			"type":"VEC3"
		},
		{
			"bufferView":2,
			"componentType":5126,
			"count":870,
			"type":"VEC2"
		},
		{
			"bufferView":3,
			"componentType":5123,
			"count":4056,
			"type":"SCALAR"
		}
	],
	"bufferViews":[
		{
			"buffer":0,
			"byteLength":10440,
			"byteOffset":0,
			"target":34962
		},
		{
			"buffer":0,
			"byteLength":10440,
			"byteOffset":10440,
			"target":34962
		},
		{
			"buffer":0,
			"byteLength":6960,
			"byteOffset":20880,
			"target":34962
		},
		{
			"buffer":0,
			"byteLength":8112,
			"byteOffset":27840,
			"target":34963
		}
	],
	"buffers":[
		{
			"byteLength":35952,
			"uri":"ImageToStl.com_rocks_02.bin"
		}
	]
}
