{
	"asset":{
		"generator":"Khronos glTF Blender I/O v4.1.63",
		"version":"2.0"
	},
	"scene":0,
	"scenes":[
		{
			"name":"Scene",
			"nodes":[
				0
			]
		}
	],
	"nodes":[
		{
			"mesh":0,
			"name":"Cube",
			"scale":[
				0.07999999821186066,
				1,
				0.07999999821186066
			]
		}
	],
	"materials":[
		{
			"doubleSided":true,
			"name":"Material_coal",
			"pbrMetallicRoughness":{
				"baseColorFactor":[
					0,
					0,
					0,
					1
				],
				"metallicFactor":0,
				"roughnessFactor":0.4000000059604645
			}
		},
		{
			"doubleSided":true,
			"name":"Material_wood",
			"pbrMetallicRoughness":{
				"baseColorFactor":[
					0.3423837125301361,
					0.16928251087665558,
					0.050258081406354904,
					1
				],
				"metallicFactor":0,
				"roughnessFactor":0.5
			}
		}
	],
	"meshes":[
		{
			"name":"Cube",
			"primitives":[
				{
					"attributes":{
						"POSITION":0,
						"NORMAL":1,
						"TEXCOORD_0":2
					},
					"indices":3,
					"material":0
				},
				{
					"attributes":{
						"POSITION":4,
						"NORMAL":5,
						"TEXCOORD_0":6
					},
					"indices":7,
					"material":1
				}
			]
		}
	],
	"accessors":[
		{
			"bufferView":0,
			"componentType":5126,
			"count":122,
			"max":[
				1.5907434225082397,
				1.0476717948913574,
				1.5961804389953613
			],
			"min":[
				-1.5819569826126099,
				0.6199969053268433,
				-1.5808663368225098
			],
			"type":"VEC3"
		},
		{
			"bufferView":1,
			"componentType":5126,
			"count":122,
			"type":"VEC3"
		},
		{
			"bufferView":2,
			"componentType":5126,
			"count":122,
			"type":"VEC2"
		},
		{
			"bufferView":3,
			"componentType":5123,
			"count":576,
			"type":"SCALAR"
		},
		{
			"bufferView":4,
			"componentType":5126,
			"count":251,
			"max":[
				1.4502843618392944,
				0.6872668862342834,
				1.022965669631958
			],
			"min":[
				-1.110731601715088,
				-1.0341581106185913,
				-1.4435279369354248
			],
			"type":"VEC3"
		},
		{
			"bufferView":5,
			"componentType":5126,
			"count":251,
			"type":"VEC3"
		},
		{
			"bufferView":6,
			"componentType":5126,
			"count":251,
			"type":"VEC2"
		},
		{
			"bufferView":7,
			"componentType":5123,
			"count":960,
			"type":"SCALAR"
		}
	],
	"bufferViews":[
		{
			"buffer":0,
			"byteLength":1464,
			"byteOffset":0,
			"target":34962
		},
		{
			"buffer":0,
			"byteLength":1464,
			"byteOffset":1464,
			"target":34962
		},
		{
			"buffer":0,
			"byteLength":976,
			"byteOffset":2928,
			"target":34962
		},
		{
			"buffer":0,
			"byteLength":1152,
			"byteOffset":3904,
			"target":34963
		},
		{
			"buffer":0,
			"byteLength":3012,
			"byteOffset":5056,
			"target":34962
		},
		{
			"buffer":0,
			"byteLength":3012,
			"byteOffset":8068,
			"target":34962
		},
		{
			"buffer":0,
			"byteLength":2008,
			"byteOffset":11080,
			"target":34962
		},
		{
			"buffer":0,
			"byteLength":1920,
			"byteOffset":13088,
			"target":34963
		}
	],
	"buffers":[
		{
			"byteLength":15008,
			"uri":"torch.bin"
		}
	]
}
