{
	"asset":{
		"generator":"Khronos glTF Blender I/O v4.1.63",
		"version":"2.0"
	},
	"scene":0,
	"scenes":[
		{
			"name":"Scene",
			"nodes":[
				0
			]
		}
	],
	"nodes":[
		{
			"mesh":0,
			"name":"imagetostl_mesh0",
			"translation":[
				-0.6779614686965942,
				0.14103831350803375,
				3.9804439544677734
			]
		}
	],
	"materials":[
		{
			"doubleSided":true,
			"name":"mat0",
			"pbrMetallicRoughness":{
				"baseColorFactor":[
					0.5686274766921997,
					0.2549019753932953,
					0.0784313753247261,
					1
				],
				"metallicFactor":0,
				"roughnessFactor":0.4000000059604645
			}
		},
		{
			"doubleSided":true,
			"name":"mat0.001",
			"pbrMetallicRoughness":{
				"baseColorFactor":[
					0.21960784494876862,
					0.07450980693101883,
					0.03921568766236305,
					1
				],
				"metallicFactor":0,
				"roughnessFactor":0.4000000059604645
			}
		}
	],
	"meshes":[
		{
			"name":"imagetostl_mesh0",
			"primitives":[
				{
					"attributes":{
						"POSITION":0,
						"NORMAL":1
					},
					"indices":2,
					"material":0
				},
				{
					"attributes":{
						"POSITION":3,
						"NORMAL":4
					},
					"indices":5,
					"material":1
				}
			]
		}
	],
	"accessors":[
		{
			"bufferView":0,
			"componentType":5126,
			"count":200,
			"max":[
				0.28655147552490234,
				0.13003169000148773,
				1.2200989723205566
			],
			"min":[
				-0.2698875069618225,
				-0.41210830211639404,
				-7.254286766052246
			],
			"type":"VEC3"
		},
		{
			"bufferView":1,
			"componentType":5126,
			"count":200,
			"type":"VEC3"
		},
		{
			"bufferView":2,
			"componentType":5123,
			"count":258,
			"type":"SCALAR"
		},
		{
			"bufferView":3,
			"componentType":5126,
			"count":406,
			"max":[
				2.472827434539795,
				0.28618568181991577,
				-7.240261077880859
			],
			"min":[
				-2.5519375801086426,
				-0.5682623386383057,
				-8.158968925476074
			],
			"type":"VEC3"
		},
		{
			"bufferView":4,
			"componentType":5126,
			"count":406,
			"type":"VEC3"
		},
		{
			"bufferView":5,
			"componentType":5123,
			"count":510,
			"type":"SCALAR"
		}
	],
	"bufferViews":[
		{
			"buffer":0,
			"byteLength":2400,
			"byteOffset":0,
			"target":34962
		},
		{
			"buffer":0,
			"byteLength":2400,
			"byteOffset":2400,
			"target":34962
		},
		{
			"buffer":0,
			"byteLength":516,
			"byteOffset":4800,
			"target":34963
		},
		{
			"buffer":0,
			"byteLength":4872,
			"byteOffset":5316,
			"target":34962
		},
		{
			"buffer":0,
			"byteLength":4872,
			"byteOffset":10188,
			"target":34962
		},
		{
			"buffer":0,
			"byteLength":1020,
			"byteOffset":15060,
			"target":34963
		}
	],
	"buffers":[
		{
			"byteLength":16080,
			"uri":"chorus.bin"
		}
	]
}
