{
	"asset":{
		"generator":"Khronos glTF Blender I/O v4.1.63",
		"version":"2.0"
	},
	"scene":0,
	"scenes":[
		{
			"name":"Scene",
			"nodes":[
				0
			]
		}
	],
	"nodes":[
		{
			"mesh":0,
			"name":"imagetostl_mesh0",
			"translation":[
				-0.6734469532966614,
				0.22151312232017517,
				3.8829774856567383
			]
		}
	],
	"materials":[
		{
			"doubleSided":true,
			"name":"mat0",
			"pbrMetallicRoughness":{
				"baseColorFactor":[
					0.5686274766921997,
					0.2549019753932953,
					0.0784313753247261,
					1
				],
				"metallicFactor":0,
				"roughnessFactor":0.4000000059604645
			}
		},
		{
			"doubleSided":true,
			"name":"mat0.001",
			"pbrMetallicRoughness":{
				"baseColorFactor":[
					0.13725490868091583,
					0.5647059082984924,
					1,
					1
				],
				"metallicFactor":0,
				"roughnessFactor":0.4000000059604645
			}
		}
	],
	"meshes":[
		{
			"name":"imagetostl_mesh0",
			"primitives":[
				{
					"attributes":{
						"POSITION":0,
						"NORMAL":1
					},
					"indices":2,
					"material":0
				},
				{
					"attributes":{
						"POSITION":3,
						"NORMAL":4
					},
					"indices":5,
					"material":1
				}
			]
		}
	],
	"accessors":[
		{
			"bufferView":0,
			"componentType":5126,
			"count":198,
			"max":[
				0.31534793972969055,
				0.08980688452720642,
				1.2057147026062012
			],
			"min":[
				-0.30716902017593384,
				-0.5328330993652344,
				-7.194120407104492
			],
			"type":"VEC3"
		},
		{
			"bufferView":1,
			"componentType":5126,
			"count":198,
			"type":"VEC3"
		},
		{
			"bufferView":2,
			"componentType":5123,
			"count":258,
			"type":"SCALAR"
		},
		{
			"bufferView":3,
			"componentType":5126,
			"count":382,
			"max":[
				2.2663469314575195,
				0.20571088790893555,
				-7.180631637573242
			],
			"min":[
				-2.3534321784973145,
				-0.6487371325492859,
				-8.051177978515625
			],
			"type":"VEC3"
		},
		{
			"bufferView":4,
			"componentType":5126,
			"count":382,
			"type":"VEC3"
		},
		{
			"bufferView":5,
			"componentType":5123,
			"count":510,
			"type":"SCALAR"
		}
	],
	"bufferViews":[
		{
			"buffer":0,
			"byteLength":2376,
			"byteOffset":0,
			"target":34962
		},
		{
			"buffer":0,
			"byteLength":2376,
			"byteOffset":2376,
			"target":34962
		},
		{
			"buffer":0,
			"byteLength":516,
			"byteOffset":4752,
			"target":34963
		},
		{
			"buffer":0,
			"byteLength":4584,
			"byteOffset":5268,
			"target":34962
		},
		{
			"buffer":0,
			"byteLength":4584,
			"byteOffset":9852,
			"target":34962
		},
		{
			"buffer":0,
			"byteLength":1020,
			"byteOffset":14436,
			"target":34963
		}
	],
	"buffers":[
		{
			"byteLength":15456,
			"uri":"diamond.bin"
		}
	]
}
