{
	"asset":{
		"generator":"Khronos glTF Blender I/O v4.1.63",
		"version":"2.0"
	},
	"scene":0,
	"scenes":[
		{
			"name":"Scene",
			"nodes":[
				0
			]
		}
	],
	"nodes":[
		{
			"mesh":0,
			"name":"imagetostl_mesh0",
			"translation":[
				-0.6477808952331543,
				0.18713577091693878,
				3.8718152046203613
			]
		}
	],
	"materials":[
		{
			"doubleSided":true,
			"name":"mat0",
			"pbrMetallicRoughness":{
				"baseColorFactor":[
					0.5686274766921997,
					0.2549019753932953,
					0.0784313753247261,
					1
				],
				"metallicFactor":0,
				"roughnessFactor":0.4000000059604645
			}
		},
		{
			"doubleSided":true,
			"name":"mat0.001",
			"pbrMetallicRoughness":{
				"baseColorFactor":[
					1,
					0.4941176474094391,
					0,
					1
				],
				"metallicFactor":0,
				"roughnessFactor":0.4000000059604645
			}
		}
	],
	"meshes":[
		{
			"name":"imagetostl_mesh0",
			"primitives":[
				{
					"attributes":{
						"POSITION":0,
						"NORMAL":1
					},
					"indices":2,
					"material":0
				},
				{
					"attributes":{
						"POSITION":3,
						"NORMAL":4
					},
					"indices":5,
					"material":1
				}
			]
		}
	],
	"accessors":[
		{
			"bufferView":0,
			"componentType":5126,
			"count":198,
			"max":[
				0.28968188166618347,
				0.12418423593044281,
				1.2168769836425781
			],
			"min":[
				-0.3328350782394409,
				-0.4984557628631592,
				-7.182958126068115
			],
			"type":"VEC3"
		},
		{
			"bufferView":1,
			"componentType":5126,
			"count":198,
			"type":"VEC3"
		},
		{
			"bufferView":2,
			"componentType":5123,
			"count":258,
			"type":"SCALAR"
		},
		{
			"bufferView":3,
			"componentType":5126,
			"count":382,
			"max":[
				2.2406809329986572,
				0.24008823931217194,
				-7.169468879699707
			],
			"min":[
				-2.3790981769561768,
				-0.6143597960472107,
				-8.04001522064209
			],
			"type":"VEC3"
		},
		{
			"bufferView":4,
			"componentType":5126,
			"count":382,
			"type":"VEC3"
		},
		{
			"bufferView":5,
			"componentType":5123,
			"count":510,
			"type":"SCALAR"
		}
	],
	"bufferViews":[
		{
			"buffer":0,
			"byteLength":2376,
			"byteOffset":0,
			"target":34962
		},
		{
			"buffer":0,
			"byteLength":2376,
			"byteOffset":2376,
			"target":34962
		},
		{
			"buffer":0,
			"byteLength":516,
			"byteOffset":4752,
			"target":34963
		},
		{
			"buffer":0,
			"byteLength":4584,
			"byteOffset":5268,
			"target":34962
		},
		{
			"buffer":0,
			"byteLength":4584,
			"byteOffset":9852,
			"target":34962
		},
		{
			"buffer":0,
			"byteLength":1020,
			"byteOffset":14436,
			"target":34963
		}
	],
	"buffers":[
		{
			"byteLength":15456,
			"uri":"gold.bin"
		}
	]
}
