{
	"asset":{
		"generator":"Khronos glTF Blender I/O v4.1.63",
		"version":"2.0"
	},
	"scene":0,
	"scenes":[
		{
			"name":"Scene",
			"nodes":[
				0
			]
		}
	],
	"nodes":[
		{
			"mesh":0,
			"name":"imagetostl_mesh0"
		}
	],
	"materials":[
		{
			"doubleSided":true,
			"name":"mat0",
			"pbrMetallicRoughness":{
				"baseColorFactor":[
					0.5686274766921997,
					0.2549019753932953,
					0.0784313753247261,
					1
				],
				"metallicFactor":0,
				"roughnessFactor":0.4000000059604645
			}
		},
		{
			"doubleSided":true,
			"name":"mat0.001",
			"pbrMetallicRoughness":{
				"baseColorFactor":[
					0.8901960849761963,
					0.8980392217636108,
					1,
					1
				],
				"metallicFactor":0,
				"roughnessFactor":0.4000000059604645
			}
		}
	],
	"meshes":[
		{
			"name":"imagetostl_mesh0",
			"primitives":[
				{
					"attributes":{
						"POSITION":0,
						"NORMAL":1
					},
					"indices":2,
					"material":0
				},
				{
					"attributes":{
						"POSITION":3,
						"NORMAL":4
					},
					"indices":5,
					"material":1
				}
			]
		}
	],
	"accessors":[
		{
			"bufferView":0,
			"componentType":5126,
			"count":196,
			"max":[
				0.3253979980945587,
				0.31133198738098145,
				1.4962306022644043
			],
			"min":[
				-0.29711800813674927,
				-0.31130799651145935,
				-6.903602123260498
			],
			"type":"VEC3"
		},
		{
			"bufferView":1,
			"componentType":5126,
			"count":196,
			"type":"VEC3"
		},
		{
			"bufferView":2,
			"componentType":5123,
			"count":258,
			"type":"SCALAR"
		},
		{
			"bufferView":3,
			"componentType":5126,
			"count":390,
			"max":[
				2.276397943496704,
				0.42723599076271057,
				-6.8901143074035645
			],
			"min":[
				-2.343380928039551,
				-0.4272119998931885,
				-7.760660171508789
			],
			"type":"VEC3"
		},
		{
			"bufferView":4,
			"componentType":5126,
			"count":390,
			"type":"VEC3"
		},
		{
			"bufferView":5,
			"componentType":5123,
			"count":510,
			"type":"SCALAR"
		}
	],
	"bufferViews":[
		{
			"buffer":0,
			"byteLength":2352,
			"byteOffset":0,
			"target":34962
		},
		{
			"buffer":0,
			"byteLength":2352,
			"byteOffset":2352,
			"target":34962
		},
		{
			"buffer":0,
			"byteLength":516,
			"byteOffset":4704,
			"target":34963
		},
		{
			"buffer":0,
			"byteLength":4680,
			"byteOffset":5220,
			"target":34962
		},
		{
			"buffer":0,
			"byteLength":4680,
			"byteOffset":9900,
			"target":34962
		},
		{
			"buffer":0,
			"byteLength":1020,
			"byteOffset":14580,
			"target":34963
		}
	],
	"buffers":[
		{
			"byteLength":15600,
			"uri":"iron.bin"
		}
	]
}
