{
	"asset":{
		"generator":"Khronos glTF Blender I/O v4.1.63",
		"version":"2.0"
	},
	"scene":0,
	"scenes":[
		{
			"name":"Scene",
			"nodes":[
				0
			]
		}
	],
	"nodes":[
		{
			"mesh":0,
			"name":"imagetostl_mesh0",
			"translation":[
				-0.6627211570739746,
				0.2189626395702362,
				3.924004316329956
			]
		}
	],
	"materials":[
		{
			"doubleSided":true,
			"name":"mat0",
			"pbrMetallicRoughness":{
				"baseColorFactor":[
					0.5686274766921997,
					0.2549019753932953,
					0.0784313753247261,
					1
				],
				"metallicFactor":0,
				"roughnessFactor":0.4000000059604645
			}
		},
		{
			"doubleSided":true,
			"name":"mat0.001",
			"pbrMetallicRoughness":{
				"baseColorFactor":[
					0.1921568661928177,
					0.1921568661928177,
					0.1921568661928177,
					1
				],
				"metallicFactor":0,
				"roughnessFactor":0.4000000059604645
			}
		}
	],
	"meshes":[
		{
			"name":"imagetostl_mesh0",
			"primitives":[
				{
					"attributes":{
						"POSITION":0,
						"NORMAL":1
					},
					"indices":2,
					"material":0
				},
				{
					"attributes":{
						"POSITION":3,
						"NORMAL":4
					},
					"indices":5,
					"material":1
				}
			]
		}
	],
	"accessors":[
		{
			"bufferView":0,
			"componentType":5126,
			"count":198,
			"max":[
				0.3046221435070038,
				0.09235736727714539,
				1.1646878719329834
			],
			"min":[
				-0.3178948163986206,
				-0.5302826166152954,
				-7.235147476196289
			],
			"type":"VEC3"
		},
		{
			"bufferView":1,
			"componentType":5126,
			"count":198,
			"type":"VEC3"
		},
		{
			"bufferView":2,
			"componentType":5123,
			"count":258,
			"type":"SCALAR"
		},
		{
			"bufferView":3,
			"componentType":5126,
			"count":382,
			"max":[
				2.2556211948394775,
				0.2082613706588745,
				-7.221658706665039
			],
			"min":[
				-2.3641579151153564,
				-0.6461866497993469,
				-8.092204093933105
			],
			"type":"VEC3"
		},
		{
			"bufferView":4,
			"componentType":5126,
			"count":382,
			"type":"VEC3"
		},
		{
			"bufferView":5,
			"componentType":5123,
			"count":510,
			"type":"SCALAR"
		}
	],
	"bufferViews":[
		{
			"buffer":0,
			"byteLength":2376,
			"byteOffset":0,
			"target":34962
		},
		{
			"buffer":0,
			"byteLength":2376,
			"byteOffset":2376,
			"target":34962
		},
		{
			"buffer":0,
			"byteLength":516,
			"byteOffset":4752,
			"target":34963
		},
		{
			"buffer":0,
			"byteLength":4584,
			"byteOffset":5268,
			"target":34962
		},
		{
			"buffer":0,
			"byteLength":4584,
			"byteOffset":9852,
			"target":34962
		},
		{
			"buffer":0,
			"byteLength":1020,
			"byteOffset":14436,
			"target":34963
		}
	],
	"buffers":[
		{
			"byteLength":15456,
			"uri":"normal.bin"
		}
	]
}
