{
	"asset":{
		"generator":"Khronos glTF Blender I/O v4.1.63",
		"version":"2.0"
	},
	"scene":0,
	"scenes":[
		{
			"name":"Scene",
			"nodes":[
				0,
				1
			]
		}
	],
	"nodes":[
		{
			"mesh":0,
			"name":"Circle.001",
			"rotation":[
				0,
				0.7035108804702759,
				0,
				0.7106845378875732
			],
			"translation":[
				0.0008967071771621704,
				-2.963779926300049,
				0.0002414293121546507
			]
		},
		{
			"mesh":1,
			"name":"Circle",
			"rotation":[
				0,
				-0.7094046473503113,
				0,
				0.7048014402389526
			],
			"translation":[
				0.0008967071771621704,
				-2.929824113845825,
				0.0002414293121546507
			]
		}
	],
	"materials":[
		{
			"doubleSided":true,
			"name":"pickaxe",
			"pbrMetallicRoughness":{
				"baseColorFactor":[
					0.30000001192092896,
					0.30022671818733215,
					0.10000000149011612,
					1
				],
				"metallicFactor":0,
				"roughnessFactor":0.5
			}
		},
		{
			"doubleSided":true,
			"name":"maner_pickaxe",
			"pbrMetallicRoughness":{
				"baseColorFactor":[
					0.699999988079071,
					0.4000000059604645,
					0.10000000149011612,
					1
				],
				"metallicFactor":0,
				"roughnessFactor":0.5
			}
		}
	],
	"meshes":[
		{
			"name":"Circle.001",
			"primitives":[
				{
					"attributes":{
						"POSITION":0,
						"NORMAL":1,
						"TEXCOORD_0":2
					},
					"indices":3,
					"material":0
				}
			]
		},
		{
			"name":"Circle",
			"primitives":[
				{
					"attributes":{
						"POSITION":4,
						"NORMAL":5,
						"TEXCOORD_0":6
					},
					"indices":7,
					"material":1
				}
			]
		}
	],
	"accessors":[
		{
			"bufferView":0,
			"componentType":5126,
			"count":400,
			"max":[
				1.9010471105575562,
				6.067248344421387,
				0.14931169152259827
			],
			"min":[
				-1.7664653062820435,
				5.848422527313232,
				-0.14418189227581024
			],
			"type":"VEC3"
		},
		{
			"bufferView":1,
			"componentType":5126,
			"count":400,
			"type":"VEC3"
		},
		{
			"bufferView":2,
			"componentType":5126,
			"count":400,
			"type":"VEC2"
		},
		{
			"bufferView":3,
			"componentType":5123,
			"count":672,
			"type":"SCALAR"
		},
		{
			"bufferView":4,
			"componentType":5126,
			"count":608,
			"max":[
				0.1264418363571167,
				6.076394081115723,
				0.0990845337510109
			],
			"min":[
				-0.1264420449733734,
				1.4000422954559326,
				-0.09908509999513626
			],
			"type":"VEC3"
		},
		{
			"bufferView":5,
			"componentType":5126,
			"count":608,
			"type":"VEC3"
		},
		{
			"bufferView":6,
			"componentType":5126,
			"count":608,
			"type":"VEC2"
		},
		{
			"bufferView":7,
			"componentType":5123,
			"count":948,
			"type":"SCALAR"
		}
	],
	"bufferViews":[
		{
			"buffer":0,
			"byteLength":4800,
			"byteOffset":0,
			"target":34962
		},
		{
			"buffer":0,
			"byteLength":4800,
			"byteOffset":4800,
			"target":34962
		},
		{
			"buffer":0,
			"byteLength":3200,
			"byteOffset":9600,
			"target":34962
		},
		{
			"buffer":0,
			"byteLength":1344,
			"byteOffset":12800,
			"target":34963
		},
		{
			"buffer":0,
			"byteLength":7296,
			"byteOffset":14144,
			"target":34962
		},
		{
			"buffer":0,
			"byteLength":7296,
			"byteOffset":21440,
			"target":34962
		},
		{
			"buffer":0,
			"byteLength":4864,
			"byteOffset":28736,
			"target":34962
		},
		{
			"buffer":0,
			"byteLength":1896,
			"byteOffset":33600,
			"target":34963
		}
	],
	"buffers":[
		{
			"byteLength":35496,
			"uri":"superPickaxe.bin"
		}
	]
}
